<svg width="897" height="209" xmlns="http://www.w3.org/2000/svg" xmlns:xlink="http://www.w3.org/1999/xlink" overflow="hidden"><defs><clipPath id="clip0"><rect x="191" y="236" width="897" height="209"/></clipPath><clipPath id="clip1"><rect x="192" y="236" width="895" height="208"/></clipPath><clipPath id="clip2"><rect x="192" y="236" width="895" height="208"/></clipPath><clipPath id="clip3"><rect x="532" y="252" width="114" height="196"/></clipPath><clipPath id="clip4"><rect x="532" y="252" width="114" height="196"/></clipPath><clipPath id="clip5"><rect x="413" y="252" width="233" height="196"/></clipPath></defs><g clip-path="url(#clip0)" transform="translate(-191 -236)"><g clip-path="url(#clip1)"><g clip-path="url(#clip2)"><text fill="#FFFFFF" font-family="Brandish,Brandish_MSFontService,sans-serif" font-weight="500" font-size="221" transform="matrix(0.999971 0 0 1.00148 187.529 432)">Bri</text><g clip-path="url(#clip3)"><g clip-path="url(#clip4)"><g clip-path="url(#clip5)"><path d="M33.565 168.436C32.1411 169.859 30.3103 170.267 28.4795 169.453 26.6487 168.639 25.6316 167.012 25.6316 165.181 25.6316 163.35 26.8521 161.519 28.4795 160.909 30.3103 160.095 32.1411 160.502 33.565 161.927 35.3959 163.553 35.3959 166.604 33.565 168.436ZM177.183 34.3787 160.706 50.8561 147.687 47.3979 144.432 34.5821 160.909 18.1048C151.145 14.4432 140.159 16.6808 132.429 23.5973 124.7 30.7172 121.648 41.2952 124.292 51.4664L20.5459 155.213C16.8843 158.672 15.4603 163.961 16.6808 168.843 17.9014 173.725 21.7665 177.59 26.6487 178.81 31.5308 180.031 36.6164 178.607 40.2781 174.946L144.024 71.1987C154.196 73.8432 164.774 70.7918 171.894 63.0617 178.81 55.3315 181.048 44.1431 177.183 34.3787Z" fill="#FFFFFF" transform="matrix(1.18741 0 0 1 413.849 252.461)"/><path d="M176.369 155.213 123.886 102.729 102.729 123.886 153.585 174.741 155.417 176.572 155.62 176.369C161.519 180.641 169.656 179.827 174.741 174.741 179.827 169.453 180.438 161.316 176.369 155.213L176.369 155.213Z" fill="#FFFFFF" transform="matrix(1.18741 0 0 1 413.849 252.461)"/><path d="M45.9739 40.2781 46.1774 40.0746 40.8883 30.3103 23.3939 16.274 16.274 23.3939 30.3103 40.8883 40.0746 46.1774 40.2781 45.9739 79.1322 84.8281 84.8281 79.1322Z" fill="#FFFFFF" transform="matrix(1.18741 0 0 1 413.849 252.461)"/></g></g></g><text fill="#FFFFFF" font-family="Brandish,Brandish_MSFontService,sans-serif" font-weight="500" font-size="221" transform="matrix(0.999971 0 0 1.00148 633.09 431)">olat</text><path d="M479.986 258.993 509.985 258.993 509.985 443.987 479.986 443.987Z" fill="#FFFFFF" transform="matrix(1 0 0 1.0015 22.7552 -13.9316)"/></g></g></g></svg>